<svg xmlns="http://www.w3.org/2000/svg" width="192" height="192" viewBox="0 0 192 192" fill="none"><title>Round-leaf Bush</title><desc>Round-leaf Bush with a compact readable silhouette and soft upper-left light.</desc><metadata>Original repository-authored Starville Phase 12D production candidate; exact immutable manifest 2.0.0.</metadata><defs>
    <linearGradient id="surface" x1=".08" y1=".04" x2=".92" y2=".96"><stop stop-color="#f3edbd"/><stop offset=".24" stop-color="#a7c98b"/><stop offset=".72" stop-color="#5d8b68"/><stop offset="1" stop-color="#345c4c"/></linearGradient>
    <linearGradient id="shade" x1=".08" y1="0" x2=".92" y2="1"><stop stop-color="#a7c98b"/><stop offset=".46" stop-color="#5d8b68"/><stop offset="1" stop-color="#345c4c"/></linearGradient>
    <linearGradient id="rim" x1="0" y1="0" x2="1" y2=".75"><stop stop-color="#f3edbd" stop-opacity=".9"/><stop offset=".5" stop-color="#d8d99a" stop-opacity=".36"/><stop offset="1" stop-color="#345c4c" stop-opacity=".12"/></linearGradient>
    <radialGradient id="glow"><stop stop-color="#f3edbd" stop-opacity=".96"/><stop offset=".45" stop-color="#d8d99a" stop-opacity=".45"/><stop offset="1" stop-color="#d8d99a" stop-opacity="0"/></radialGradient>
  </defs><g data-starville-art-profile="phase12d-production-candidate" stroke-linecap="round" stroke-linejoin="round"><ellipse cx="99.84" cy="168.96" rx="65.28" ry="15.36" fill="#18231f" opacity=".22"/><path d="M36.48 130.56q0-59.52 42.24-49.92q17.28-46.08 46.08 0q42.24-7.68 36.48 53.76q-61.44 42.24-124.8-3.84" fill="url(#surface)" stroke="#253832" stroke-width="5"/><circle cx="82.56" cy="90.24" r="5" fill="#d8d99a"/><circle cx="126.72" cy="105.6" r="5" fill="#d8d99a"/><path d="M51.84 107.52q17.28-24.96 32.64-3.84m13.44-19.2q19.2-21.12 34.56 5.76" stroke="#f3edbd" stroke-width="3.456" opacity=".5"/><g fill="#d8d99a" opacity=".7"><circle cx="61.44" cy="86.4" r="2.88"/><circle cx="111.36" cy="74.88" r="2.304"/></g></g></svg>
