<svg xmlns="http://www.w3.org/2000/svg" width="192" height="192" viewBox="0 0 192 192" fill="none"><title>Moonbell Flowers</title><desc>Moonbell Flowers with a compact readable silhouette and soft upper-left light.</desc><metadata>Original repository-authored Starville Phase 12D production candidate; exact immutable manifest 2.0.0.</metadata><defs>
    <linearGradient id="surface" x1=".08" y1=".04" x2=".92" y2=".96"><stop stop-color="#fff4c5"/><stop offset=".24" stop-color="#b8c7df"/><stop offset=".72" stop-color="#7887b5"/><stop offset="1" stop-color="#4e5686"/></linearGradient>
    <linearGradient id="shade" x1=".08" y1="0" x2=".92" y2="1"><stop stop-color="#b8c7df"/><stop offset=".46" stop-color="#7887b5"/><stop offset="1" stop-color="#4e5686"/></linearGradient>
    <linearGradient id="rim" x1="0" y1="0" x2="1" y2=".75"><stop stop-color="#fff4c5" stop-opacity=".9"/><stop offset=".5" stop-color="#e9d68d" stop-opacity=".36"/><stop offset="1" stop-color="#4e5686" stop-opacity=".12"/></linearGradient>
    <radialGradient id="glow"><stop stop-color="#fff4c5" stop-opacity=".96"/><stop offset=".45" stop-color="#e9d68d" stop-opacity=".45"/><stop offset="1" stop-color="#e9d68d" stop-opacity="0"/></radialGradient>
  </defs><g data-starville-art-profile="phase12d-production-candidate" stroke-linecap="round" stroke-linejoin="round"><ellipse cx="99.84" cy="168.96" rx="65.28" ry="15.36" fill="#18231f" opacity=".22"/><path d="M96 149.76V80.64m0 38.4l-34.56-23.04m34.56 7.68l32.64-26.88" stroke="#4e5686" stroke-width="8"/><g fill="#b8c7df" stroke="#2c304b" stroke-width="3"><circle cx="94.08" cy="65.28" r="23.04"/><circle cx="69.12" cy="90.24" r="19.2"/><circle cx="124.8" cy="82.56" r="19.2"/></g><g fill="#e9d68d"><circle cx="94.08" cy="65.28" r="6.72"/><circle cx="69.12" cy="90.24" r="5.76"/><circle cx="124.8" cy="82.56" r="5.76"/></g><path d="M51.84 56.64l1.344 3.456 3.456 1.344-3.456 1.344-1.344 3.456-1.344-3.456-3.456-1.344 3.456-1.344z" fill="#fff4c5" stroke="#e9d68d" stroke-width="2"/><path d="M57.6 147.84q38.4-13.44 76.8 0" stroke="#b8c7df" stroke-width="3.456" opacity=".55"/></g></svg>
