<svg xmlns="http://www.w3.org/2000/svg" width="288" height="320" viewBox="0 0 288 320" fill="none"><title>Star Maple</title><desc>A rounded maple tree with moss, amber, and sage foliage clusters.</desc><metadata>Original repository-authored Starville Phase 12D production candidate; exact immutable manifest 2.0.0.</metadata><defs>
    <linearGradient id="surface" x1=".08" y1=".04" x2=".92" y2=".96"><stop stop-color="#fff2bd"/><stop offset=".24" stop-color="#e8bd77"/><stop offset=".72" stop-color="#b87849"/><stop offset="1" stop-color="#75503d"/></linearGradient>
    <linearGradient id="shade" x1=".08" y1="0" x2=".92" y2="1"><stop stop-color="#e8bd77"/><stop offset=".46" stop-color="#b87849"/><stop offset="1" stop-color="#75503d"/></linearGradient>
    <linearGradient id="rim" x1="0" y1="0" x2="1" y2=".75"><stop stop-color="#fff2bd" stop-opacity=".9"/><stop offset=".5" stop-color="#f5df9a" stop-opacity=".36"/><stop offset="1" stop-color="#75503d" stop-opacity=".12"/></linearGradient>
    <radialGradient id="glow"><stop stop-color="#fff2bd" stop-opacity=".96"/><stop offset=".45" stop-color="#f5df9a" stop-opacity=".45"/><stop offset="1" stop-color="#f5df9a" stop-opacity="0"/></radialGradient>
  </defs><g data-starville-art-profile="phase12d-production-candidate" stroke-linecap="round" stroke-linejoin="round"><ellipse cx="149.76" cy="281.6" rx="97.92" ry="25.6" fill="#18231f" opacity=".22"/><path d="M132.48 185.6l23.04 0 14.4 96h-51.84z" fill="#75503d" stroke="#382b2a" stroke-width="5"/><circle cx="109.44" cy="121.6" r="63.36" fill="#b87849" stroke="#382b2a" stroke-width="5"/><circle cx="175.68" cy="128" r="57.6" fill="#e8bd77" stroke="#382b2a" stroke-width="5"/><circle cx="144" cy="80" r="57.6" fill="#f5df9a" stroke="#382b2a" stroke-width="5"/><path d="M103.68 86.4q34.56-35.2 72-12.8" stroke="#fff2bd" stroke-width="8" opacity=".5"/><path d="M80.64 115.2q31.68-38.4 57.6-16m34.56-41.6q28.8-25.6 57.6 9.6m-40.32 64q31.68-25.6 54.72 6.4" stroke="#fff2bd" stroke-width="5.184" opacity=".52"/><g fill="#f5df9a" stroke="#75503d" stroke-width="1.5"><circle cx="100.8" cy="99.2" r="5.472"/><circle cx="184.32" cy="134.4" r="4.896"/><circle cx="149.76" cy="64" r="4.608"/></g></g></svg>
