<svg xmlns="http://www.w3.org/2000/svg" width="256" height="320" viewBox="0 0 256 320" fill="none"><title>Whisper Pine</title><desc>A layered evergreen with a narrow trunk collision and soft canopy highlights.</desc><metadata>Original repository-authored Starville Phase 12D production candidate; exact immutable manifest 2.0.0.</metadata><defs>
    <linearGradient id="surface" x1=".08" y1=".04" x2=".92" y2=".96"><stop stop-color="#f3edbd"/><stop offset=".24" stop-color="#a7c98b"/><stop offset=".72" stop-color="#5d8b68"/><stop offset="1" stop-color="#345c4c"/></linearGradient>
    <linearGradient id="shade" x1=".08" y1="0" x2=".92" y2="1"><stop stop-color="#a7c98b"/><stop offset=".46" stop-color="#5d8b68"/><stop offset="1" stop-color="#345c4c"/></linearGradient>
    <linearGradient id="rim" x1="0" y1="0" x2="1" y2=".75"><stop stop-color="#f3edbd" stop-opacity=".9"/><stop offset=".5" stop-color="#d8d99a" stop-opacity=".36"/><stop offset="1" stop-color="#345c4c" stop-opacity=".12"/></linearGradient>
    <radialGradient id="glow"><stop stop-color="#f3edbd" stop-opacity=".96"/><stop offset=".45" stop-color="#d8d99a" stop-opacity=".45"/><stop offset="1" stop-color="#d8d99a" stop-opacity="0"/></radialGradient>
  </defs><g data-starville-art-profile="phase12d-production-candidate" stroke-linecap="round" stroke-linejoin="round"><ellipse cx="133.12" cy="281.6" rx="87.04" ry="25.6" fill="#18231f" opacity=".22"/><path d="M117.76 185.6l20.48 0 12.8 96h-46.08z" fill="#345c4c" stroke="#253832" stroke-width="5"/><path d="M128 25.6l-61.44 134.4h33.28l-51.2 96h158.72l-51.2-96h33.28z" fill="url(#surface)" stroke="#253832" stroke-width="5"/><path d="M92.16 86.4q30.72-35.2 64-12.8" stroke="#f3edbd" stroke-width="8" opacity=".5"/><path d="M128 38.4l-26.88 60.8m26.88-35.2l28.16 64M79.36 176q48.64-30.4 97.28 0" stroke="#f3edbd" stroke-width="4.608" opacity=".5"/><g fill="#d8d99a" opacity=".72"><circle cx="97.28" cy="147.2" r="4.608"/><circle cx="156.16" cy="185.6" r="3.84"/></g></g></svg>
