<svg xmlns="http://www.w3.org/2000/svg" width="96" height="48" viewBox="0 0 96 48" fill="none"><title>Brook Water</title><desc>Brook Water rendered on the canonical 96 by 48 isometric tile plane.</desc><metadata>Original repository-authored Starville Phase 12D production candidate; exact immutable manifest 2.0.0.</metadata><defs>
    <linearGradient id="surface" x1=".08" y1=".04" x2=".92" y2=".96"><stop stop-color="#fff4c5"/><stop offset=".24" stop-color="#b8c7df"/><stop offset=".72" stop-color="#7887b5"/><stop offset="1" stop-color="#4e5686"/></linearGradient>
    <linearGradient id="shade" x1=".08" y1="0" x2=".92" y2="1"><stop stop-color="#b8c7df"/><stop offset=".46" stop-color="#7887b5"/><stop offset="1" stop-color="#4e5686"/></linearGradient>
    <linearGradient id="rim" x1="0" y1="0" x2="1" y2=".75"><stop stop-color="#fff4c5" stop-opacity=".9"/><stop offset=".5" stop-color="#e9d68d" stop-opacity=".36"/><stop offset="1" stop-color="#4e5686" stop-opacity=".12"/></linearGradient>
    <radialGradient id="glow"><stop stop-color="#fff4c5" stop-opacity=".96"/><stop offset=".45" stop-color="#e9d68d" stop-opacity=".45"/><stop offset="1" stop-color="#e9d68d" stop-opacity="0"/></radialGradient>
  </defs><g data-starville-art-profile="phase12d-production-candidate" stroke-linecap="round" stroke-linejoin="round"><polygon points="48,2 94,24 48,46 2,24" fill="#4e5686" stroke="#2c304b" stroke-width="2" opacity=".98"/><path d="M16.32 22.08q9.6-4.8 19.2 0t19.2 0M40.32 29.76q9.6-4.8 19.2 0t15.36 0" stroke="#b8c7df" stroke-width="2" opacity=".78"/><path d="M35.52 16.8l3.84-1.92" stroke="#fff4c5" stroke-width="2.4"/><path d="M11.52 25.92q8.64-5.28 17.28 0t17.28 0M52.8 20.16q7.68-4.8 15.36 0t12.48 0" stroke="#fff4c5" stroke-width="1.35" opacity=".76"/><path d="M26.88 33.12q7.68-3.84 15.36 0" stroke="#e9d68d" stroke-width="1" opacity=".6"/></g></svg>
