<svg xmlns="http://www.w3.org/2000/svg" width="96" height="48" viewBox="0 0 96 48" fill="none"><title>Clover Grass Variation</title><desc>A compatible grass variation with tiny clover flecks for repeated areas.</desc><metadata>Original repository-authored Starville Phase 12D production candidate; exact immutable manifest 2.0.0.</metadata><defs>
    <linearGradient id="surface" x1=".08" y1=".04" x2=".92" y2=".96"><stop stop-color="#fff3bd"/><stop offset=".24" stop-color="#b8d98d"/><stop offset=".72" stop-color="#71a867"/><stop offset="1" stop-color="#3f6f53"/></linearGradient>
    <linearGradient id="shade" x1=".08" y1="0" x2=".92" y2="1"><stop stop-color="#b8d98d"/><stop offset=".46" stop-color="#71a867"/><stop offset="1" stop-color="#3f6f53"/></linearGradient>
    <linearGradient id="rim" x1="0" y1="0" x2="1" y2=".75"><stop stop-color="#fff3bd" stop-opacity=".9"/><stop offset=".5" stop-color="#efd78b" stop-opacity=".36"/><stop offset="1" stop-color="#3f6f53" stop-opacity=".12"/></linearGradient>
    <radialGradient id="glow"><stop stop-color="#fff3bd" stop-opacity=".96"/><stop offset=".45" stop-color="#efd78b" stop-opacity=".45"/><stop offset="1" stop-color="#efd78b" stop-opacity="0"/></radialGradient>
  </defs><g data-starville-art-profile="phase12d-production-candidate" stroke-linecap="round" stroke-linejoin="round"><polygon points="48,2 94,24 48,46 2,24" fill="url(#surface)" stroke="#283a32" stroke-width="2" opacity=".98"/><path d="M26.88 26.4l3 -6 2 6M37.44 18.24l2 -5 3 5M61.44 27.84l3 -5 2 5" stroke="#efd78b" stroke-width="1.6" opacity=".7"/><g fill="#fff3bd" opacity=".8"><circle cx="27.84" cy="20.16" r="1.8"/><circle cx="31.68" cy="20.16" r="1.8"/><circle cx="29.76" cy="18.24" r="1.8"/><circle cx="67.2" cy="24" r="1.6"/><circle cx="71.04" cy="24" r="1.6"/><circle cx="69.12" cy="22.08" r="1.6"/></g><g fill="#fff3bd" opacity=".48"><circle cx="19.2" cy="22.08" r=".9"/><circle cx="46.08" cy="14.88" r=".75"/><circle cx="75.84" cy="24.96" r=".9"/></g><path d="M16.32 27.84l2.1 -3.8 1.5 3.4m50.88-5.76l1.8 -3.6 1.7 3.1" stroke="#3f6f53" stroke-width=".85" opacity=".42"/></g></svg>
