<svg xmlns="http://www.w3.org/2000/svg" width="192" height="208" viewBox="0 0 192 208" fill="none"><title>Round-leaf Planter rotation-90</title><desc>Round-leaf Planter with four authored isometric directions and a stable placement base.</desc><metadata>Original repository-authored Starville Phase 12D production candidate; exact immutable manifest 2.0.0.</metadata><defs>
    <linearGradient id="surface" x1=".08" y1=".04" x2=".92" y2=".96"><stop stop-color="#f3edbd"/><stop offset=".24" stop-color="#a7c98b"/><stop offset=".72" stop-color="#5d8b68"/><stop offset="1" stop-color="#345c4c"/></linearGradient>
    <linearGradient id="shade" x1=".08" y1="0" x2=".92" y2="1"><stop stop-color="#a7c98b"/><stop offset=".46" stop-color="#5d8b68"/><stop offset="1" stop-color="#345c4c"/></linearGradient>
    <linearGradient id="rim" x1="0" y1="0" x2="1" y2=".75"><stop stop-color="#f3edbd" stop-opacity=".9"/><stop offset=".5" stop-color="#d8d99a" stop-opacity=".36"/><stop offset="1" stop-color="#345c4c" stop-opacity=".12"/></linearGradient>
    <radialGradient id="glow"><stop stop-color="#f3edbd" stop-opacity=".96"/><stop offset=".45" stop-color="#d8d99a" stop-opacity=".45"/><stop offset="1" stop-color="#d8d99a" stop-opacity="0"/></radialGradient>
  </defs><g data-starville-art-profile="phase12d-production-candidate" stroke-linecap="round" stroke-linejoin="round"><ellipse cx="99.84" cy="183.04" rx="65.28" ry="16.64" fill="#18231f" opacity=".22"/><g transform="translate(192 0) scale(-1 1)"><path d="M61.44 118.56h69.12l-13.44 58.24h-42.24z" fill="url(#shade)" stroke="#253832" stroke-width="6"/><path d="M96 120.64q-46.08-20.8-30.72-60.32q36.48 0 36.48 35.36q11.52-52 44.16-37.44q11.52 41.6-49.92 62.4" fill="#a7c98b" stroke="#253832" stroke-width="5"/></g><g transform="translate(192 0) scale(-1 1)"><path d="M55.68 101.92l40.32 20.8 40.32-20.8" stroke="#f3edbd" stroke-width="2.688" opacity=".48"/><path d="M71.04 145.6q24.96-12.48 49.92 0" stroke="#d8d99a" stroke-width="2.304" opacity=".5"/></g></g></svg>
