<svg xmlns="http://www.w3.org/2000/svg" width="192" height="128" viewBox="0 0 192 128" fill="none"><title>Planted Farm Plot</title><desc>Planted Farm Plot on the canonical isometric home-garden footprint.</desc><defs>
    <linearGradient id="surface" x1="0" y1="0" x2="1" y2="1"><stop stop-color="#b8d98d"/><stop offset="1" stop-color="#71a867"/></linearGradient>
    <linearGradient id="shade" x1="0" y1="0" x2="0" y2="1"><stop stop-color="#71a867"/><stop offset="1" stop-color="#3f6f53"/></linearGradient>
    <radialGradient id="glow"><stop stop-color="#fff3bd" stop-opacity=".92"/><stop offset="1" stop-color="#efd78b" stop-opacity="0"/></radialGradient>
  </defs><g stroke-linecap="round" stroke-linejoin="round"><path d="M19.2 69.12l76.8-34.56 76.8 34.56-76.8 34.56z" fill="#74523d" stroke="#283a32" stroke-width="5"/><path d="M55.68 66.56l40.32-15.36 40.32 15.36" stroke="#a77c57" stroke-width="5"/><g fill="#b8d98d" stroke="#283a32" stroke-width="2"><path d="M69.12 64q-13.44-12.8-21.12-2.56q9.6 10.24 21.12 2.56q11.52-12.8 21.12-1.28q-7.68 10.24-21.12 1.28z"/><path d="M119.04 72.96q-13.44-12.8-21.12-2.56q9.6 10.24 21.12 2.56q11.52-12.8 21.12-1.28q-7.68 10.24-21.12 1.28z"/></g></g></svg>
