<svg xmlns="http://www.w3.org/2000/svg" width="352" height="288" viewBox="0 0 352 288" fill="none"><title>Whisperpine Gate</title><desc>A tall woodland gate with lantern finials and a clear passage opening.</desc><metadata>Original repository-authored Starville Phase 12D production candidate; exact immutable manifest 2.0.0.</metadata><defs>
    <linearGradient id="surface" x1=".08" y1=".04" x2=".92" y2=".96"><stop stop-color="#f3edbd"/><stop offset=".24" stop-color="#a7c98b"/><stop offset=".72" stop-color="#5d8b68"/><stop offset="1" stop-color="#345c4c"/></linearGradient>
    <linearGradient id="shade" x1=".08" y1="0" x2=".92" y2="1"><stop stop-color="#a7c98b"/><stop offset=".46" stop-color="#5d8b68"/><stop offset="1" stop-color="#345c4c"/></linearGradient>
    <linearGradient id="rim" x1="0" y1="0" x2="1" y2=".75"><stop stop-color="#f3edbd" stop-opacity=".9"/><stop offset=".5" stop-color="#d8d99a" stop-opacity=".36"/><stop offset="1" stop-color="#345c4c" stop-opacity=".12"/></linearGradient>
    <radialGradient id="glow"><stop stop-color="#f3edbd" stop-opacity=".96"/><stop offset=".45" stop-color="#d8d99a" stop-opacity=".45"/><stop offset="1" stop-color="#d8d99a" stop-opacity="0"/></radialGradient>
  </defs><g data-starville-art-profile="phase12d-production-candidate" stroke-linecap="round" stroke-linejoin="round"><ellipse cx="183.04" cy="253.44" rx="119.68" ry="23.04" fill="#18231f" opacity=".22"/><g><path d="M63.36 236.16V57.6m225.28 135.36V57.6" stroke="#253832" stroke-width="14"/><path d="M63.36 129.6l225.28 51.84M63.36 184.32l225.28 51.84" stroke="#5d8b68" stroke-width="12"/><path d="M63.36 72q112.64-69.12 225.28 0" stroke="#a7c98b" stroke-width="12"/></g><g><path d="M63.36 112.32l225.28 51.84M63.36 167.04l225.28 51.84" stroke="#f3edbd" stroke-width="6.336" opacity=".42"/><g fill="#d8d99a" stroke="#253832" stroke-width="2"><circle cx="63.36" cy="129.6" r="7.2"/><circle cx="288.64" cy="181.44" r="7.2"/></g><path d="M176 41.76l2.822 7.258 7.258 2.822-7.258 2.822-2.822 7.258-2.822-7.258-7.258-2.822 7.258-2.822z" fill="#f3edbd" stroke="#d8d99a" stroke-width="2"/></g></g></svg>
