<svg xmlns="http://www.w3.org/2000/svg" width="192" height="128" viewBox="0 0 192 128" fill="none"><title>Planted Farm Plot</title><desc>Planted Farm Plot on the canonical isometric home-garden footprint.</desc><metadata>Original repository-authored Starville Phase 12D production candidate; exact immutable manifest 2.0.0.</metadata><defs>
    <linearGradient id="surface" x1=".08" y1=".04" x2=".92" y2=".96"><stop stop-color="#fff3bd"/><stop offset=".24" stop-color="#b8d98d"/><stop offset=".72" stop-color="#71a867"/><stop offset="1" stop-color="#3f6f53"/></linearGradient>
    <linearGradient id="shade" x1=".08" y1="0" x2=".92" y2="1"><stop stop-color="#b8d98d"/><stop offset=".46" stop-color="#71a867"/><stop offset="1" stop-color="#3f6f53"/></linearGradient>
    <linearGradient id="rim" x1="0" y1="0" x2="1" y2=".75"><stop stop-color="#fff3bd" stop-opacity=".9"/><stop offset=".5" stop-color="#efd78b" stop-opacity=".36"/><stop offset="1" stop-color="#3f6f53" stop-opacity=".12"/></linearGradient>
    <radialGradient id="glow"><stop stop-color="#fff3bd" stop-opacity=".96"/><stop offset=".45" stop-color="#efd78b" stop-opacity=".45"/><stop offset="1" stop-color="#efd78b" stop-opacity="0"/></radialGradient>
  </defs><g data-starville-art-profile="phase12d-production-candidate" stroke-linecap="round" stroke-linejoin="round"><path d="M19.2 69.12l76.8-34.56 76.8 34.56-76.8 34.56z" fill="#74523d" stroke="#283a32" stroke-width="5"/><path d="M55.68 66.56l40.32-15.36 40.32 15.36" stroke="#a77c57" stroke-width="5"/><g fill="#b8d98d" stroke="#283a32" stroke-width="2"><path d="M69.12 64q-13.44-12.8-21.12-2.56q9.6 10.24 21.12 2.56q11.52-12.8 21.12-1.28q-7.68 10.24-21.12 1.28z"/><path d="M119.04 72.96q-13.44-12.8-21.12-2.56q9.6 10.24 21.12 2.56q11.52-12.8 21.12-1.28q-7.68 10.24-21.12 1.28z"/></g><path d="M34.56 88.32l61.44 21.76 61.44-21.76" stroke="#fff3bd" stroke-width="2.304" opacity=".35"/><g fill="#efd78b" opacity=".32"><ellipse cx="63.36" cy="70.4" rx="3.456" ry="1.536"/><ellipse cx="124.8" cy="65.28" rx="2.88" ry="1.28"/></g></g></svg>
