<svg xmlns="http://www.w3.org/2000/svg" width="192" height="128" viewBox="0 0 192 128" fill="none"><title>Selected Farm Plot</title><desc>Selected Farm Plot on the canonical isometric home-garden footprint.</desc><metadata>Original repository-authored Starville Phase 12D production candidate; exact immutable manifest 2.0.0.</metadata><defs>
    <linearGradient id="surface" x1=".08" y1=".04" x2=".92" y2=".96"><stop stop-color="#fff3bd"/><stop offset=".24" stop-color="#b8d98d"/><stop offset=".72" stop-color="#71a867"/><stop offset="1" stop-color="#3f6f53"/></linearGradient>
    <linearGradient id="shade" x1=".08" y1="0" x2=".92" y2="1"><stop stop-color="#b8d98d"/><stop offset=".46" stop-color="#71a867"/><stop offset="1" stop-color="#3f6f53"/></linearGradient>
    <linearGradient id="rim" x1="0" y1="0" x2="1" y2=".75"><stop stop-color="#fff3bd" stop-opacity=".9"/><stop offset=".5" stop-color="#efd78b" stop-opacity=".36"/><stop offset="1" stop-color="#3f6f53" stop-opacity=".12"/></linearGradient>
    <radialGradient id="glow"><stop stop-color="#fff3bd" stop-opacity=".96"/><stop offset=".45" stop-color="#efd78b" stop-opacity=".45"/><stop offset="1" stop-color="#efd78b" stop-opacity="0"/></radialGradient>
  </defs><g data-starville-art-profile="phase12d-production-candidate" stroke-linecap="round" stroke-linejoin="round"><path d="M19.2 69.12l76.8-34.56 76.8 34.56-76.8 34.56z" fill="#8d6749" stroke="#fff3bd" stroke-width="9"/><path d="M44.16 69.12l51.84-23.04 51.84 23.04-51.84 23.04z" fill="none" stroke="#efd78b" stroke-width="4" stroke-dasharray="9 7"/><path d="M36.48 38.64l2.8 7.2 7.2 2.8-7.2 2.8-2.8 7.2-2.8-7.2-7.2-2.8 7.2-2.8z" fill="#fff3bd" stroke="#efd78b" stroke-width="2"/><path d="M155.52 69.36l2.8 7.2 7.2 2.8-7.2 2.8-2.8 7.2-2.8-7.2-7.2-2.8 7.2-2.8z" fill="#fff3bd" stroke="#efd78b" stroke-width="2"/><path d="M34.56 88.32l61.44 21.76 61.44-21.76" stroke="#fff3bd" stroke-width="2.304" opacity=".35"/><g fill="#efd78b" opacity=".32"><ellipse cx="63.36" cy="70.4" rx="3.456" ry="1.536"/><ellipse cx="124.8" cy="65.28" rx="2.88" ry="1.28"/></g></g></svg>
