<svg xmlns="http://www.w3.org/2000/svg" width="160" height="192" viewBox="0 0 160 192" fill="none"><title>Sunroot Stage 3</title><desc>Sunroot growth stage 3 of 4 with a stable soil contact point.</desc><metadata>Original repository-authored Starville Phase 12D production candidate; exact immutable manifest 2.0.0.</metadata><defs>
    <linearGradient id="surface" x1=".08" y1=".04" x2=".92" y2=".96"><stop stop-color="#fff0b0"/><stop offset=".24" stop-color="#eeb870"/><stop offset=".72" stop-color="#c36b3f"/><stop offset="1" stop-color="#804331"/></linearGradient>
    <linearGradient id="shade" x1=".08" y1="0" x2=".92" y2="1"><stop stop-color="#eeb870"/><stop offset=".46" stop-color="#c36b3f"/><stop offset="1" stop-color="#804331"/></linearGradient>
    <linearGradient id="rim" x1="0" y1="0" x2="1" y2=".75"><stop stop-color="#fff0b0" stop-opacity=".9"/><stop offset=".5" stop-color="#f6dc83" stop-opacity=".36"/><stop offset="1" stop-color="#804331" stop-opacity=".12"/></linearGradient>
    <radialGradient id="glow"><stop stop-color="#fff0b0" stop-opacity=".96"/><stop offset=".45" stop-color="#f6dc83" stop-opacity=".45"/><stop offset="1" stop-color="#f6dc83" stop-opacity="0"/></radialGradient>
  </defs><g data-starville-art-profile="phase12d-production-candidate" stroke-linecap="round" stroke-linejoin="round"><ellipse cx="83.2" cy="168.96" rx="54.4" ry="15.36" fill="#18231f" opacity=".22"/><path d="M80 167.04V72.96" stroke="#804331" stroke-width="9"/><path d="M80 126.72q-40-24.96-41.6-59.52q43.2-3.84 48 42.24q25.6-51.84 49.6-23.04q-3.2 42.24-54.4 59.52" fill="#eeb870" stroke="#402c29" stroke-width="5"/><circle cx="62.4" cy="103.68" r="11" fill="#f6dc83" stroke="#402c29" stroke-width="3"/><path d="M80 144Q65.6 128.64 64 130.56" stroke="#fff0b0" stroke-width="2.24" opacity=".48"/><path d="M80 126.72Q94.4 111.36 96 113.28" stroke="#fff0b0" stroke-width="2.24" opacity=".48"/><path d="M80 109.44Q65.6 94.08 56.8 96" stroke="#fff0b0" stroke-width="2.24" opacity=".48"/></g></svg>
