<svg xmlns="http://www.w3.org/2000/svg" width="160" height="160" viewBox="0 0 160 160" fill="none"><title>Moonbean</title><desc>Moonbean inventory artwork designed to remain readable at quickbar size.</desc><metadata>Original repository-authored Starville Phase 12D production candidate; exact immutable manifest 2.0.0.</metadata><defs>
    <linearGradient id="surface" x1=".08" y1=".04" x2=".92" y2=".96"><stop stop-color="#fff4c5"/><stop offset=".24" stop-color="#b8c7df"/><stop offset=".72" stop-color="#7887b5"/><stop offset="1" stop-color="#4e5686"/></linearGradient>
    <linearGradient id="shade" x1=".08" y1="0" x2=".92" y2="1"><stop stop-color="#b8c7df"/><stop offset=".46" stop-color="#7887b5"/><stop offset="1" stop-color="#4e5686"/></linearGradient>
    <linearGradient id="rim" x1="0" y1="0" x2="1" y2=".75"><stop stop-color="#fff4c5" stop-opacity=".9"/><stop offset=".5" stop-color="#e9d68d" stop-opacity=".36"/><stop offset="1" stop-color="#4e5686" stop-opacity=".12"/></linearGradient>
    <radialGradient id="glow"><stop stop-color="#fff4c5" stop-opacity=".96"/><stop offset=".45" stop-color="#e9d68d" stop-opacity=".45"/><stop offset="1" stop-color="#e9d68d" stop-opacity="0"/></radialGradient>
  </defs><g data-starville-art-profile="phase12d-production-candidate" stroke-linecap="round" stroke-linejoin="round"><circle cx="80" cy="83.2" r="65.6" fill="#fff4c5" opacity=".17"/><path d="M80 33.6q44.8 12.8 36.8 57.6q-11.2 46.4-48 36.8q-41.6-19.2-19.2-62.4q12.8-32 30.4-32" fill="url(#surface)" stroke="#2c304b" stroke-width="7"/><path d="M112 33.6l3.136 8.064 8.064 3.136-8.064 3.136-3.136 8.064-3.136-8.064-8.064-3.136 8.064-3.136z" fill="#fff4c5" stroke="#e9d68d" stroke-width="2"/><circle cx="80" cy="80" r="59.2" fill="none" stroke="url(#rim)" stroke-width="2.88" opacity=".46"/><path d="M44.8 43.2q19.2-16 38.4-3.2" stroke="#ffffff" stroke-width="2.56" opacity=".42"/></g></svg>
