<svg xmlns="http://www.w3.org/2000/svg" width="384" height="384" viewBox="0 0 384 384" fill="none"><title>Amber Cottage</title><desc>A warm isometric cottage with a deep roof, lit windows, and readable doorway.</desc><metadata>Original repository-authored Starville Phase 12D production candidate; exact immutable manifest 2.0.0.</metadata><defs>
    <linearGradient id="surface" x1=".08" y1=".04" x2=".92" y2=".96"><stop stop-color="#fff2bd"/><stop offset=".24" stop-color="#e8bd77"/><stop offset=".72" stop-color="#b87849"/><stop offset="1" stop-color="#75503d"/></linearGradient>
    <linearGradient id="shade" x1=".08" y1="0" x2=".92" y2="1"><stop stop-color="#e8bd77"/><stop offset=".46" stop-color="#b87849"/><stop offset="1" stop-color="#75503d"/></linearGradient>
    <linearGradient id="rim" x1="0" y1="0" x2="1" y2=".75"><stop stop-color="#fff2bd" stop-opacity=".9"/><stop offset=".5" stop-color="#f5df9a" stop-opacity=".36"/><stop offset="1" stop-color="#75503d" stop-opacity=".12"/></linearGradient>
    <radialGradient id="glow"><stop stop-color="#fff2bd" stop-opacity=".96"/><stop offset=".45" stop-color="#f5df9a" stop-opacity=".45"/><stop offset="1" stop-color="#f5df9a" stop-opacity="0"/></radialGradient>
  </defs><g data-starville-art-profile="phase12d-production-candidate" stroke-linecap="round" stroke-linejoin="round"><ellipse cx="199.68" cy="337.92" rx="130.56" ry="30.72" fill="#18231f" opacity=".22"/>
    <path d="M76.8 176.64L192 103.68l115.2 72.96v130.56l-115.2 65.28-115.2-65.28z" fill="url(#surface)" stroke="#382b2a" stroke-width="5"/>
    <path d="M49.92 180.48L192 69.12l142.08 111.36-38.4 30.72-103.68-72.96-103.68 72.96z" fill="#75503d" stroke="#382b2a" stroke-width="5"/>
    <path d="M188.16 264.96l46.08 21.12v61.44l-46.08 19.2z" fill="#382b2a" opacity=".86"/>
    <path d="M107.52 226.56l38.4 19.2v34.56l-38.4-19.2zM249.6 230.4l38.4-19.2v38.4l-38.4 19.2z" fill="#fff2bd" stroke="#75503d" stroke-width="3"/>
    <path d="M88.32 165.12l103.68-76.8 103.68 76.8M119.04 149.76l72.96-49.92 72.96 49.92M153.6 130.56l38.4-24.96 38.4 24.96" stroke="#e8bd77" stroke-width="3.456" opacity=".54"/><path d="M78.72 184.32v115.2m226.56-115.2v115.2" stroke="#75503d" stroke-width="3.072" opacity=".45"/><path d="M276.48 119.04v-44.16l28.8 15.36v46.08" fill="#75503d" stroke="#382b2a" stroke-width="3.456"/><path d="M281.472 84.48l16.512 8.832" stroke="#fff2bd" stroke-width="2.304" opacity=".74"/><path d="M107.52 291.84q-23.04-30.72-38.4 0q19.2 26.88 38.4 0" fill="#e8bd77" stroke="#75503d" stroke-width="2.304"/></g></svg>
