<svg xmlns="http://www.w3.org/2000/svg" width="224" height="256" viewBox="0 0 224 256" fill="none"><title>Personal Home Entrance</title><desc>A flower-framed cottage doorway marker with a clear walk-up interaction point.</desc><metadata>Original repository-authored Starville Phase 12D production candidate; exact immutable manifest 2.0.0.</metadata><defs>
    <linearGradient id="surface" x1=".08" y1=".04" x2=".92" y2=".96"><stop stop-color="#f3edbd"/><stop offset=".24" stop-color="#a7c98b"/><stop offset=".72" stop-color="#5d8b68"/><stop offset="1" stop-color="#345c4c"/></linearGradient>
    <linearGradient id="shade" x1=".08" y1="0" x2=".92" y2="1"><stop stop-color="#a7c98b"/><stop offset=".46" stop-color="#5d8b68"/><stop offset="1" stop-color="#345c4c"/></linearGradient>
    <linearGradient id="rim" x1="0" y1="0" x2="1" y2=".75"><stop stop-color="#f3edbd" stop-opacity=".9"/><stop offset=".5" stop-color="#d8d99a" stop-opacity=".36"/><stop offset="1" stop-color="#345c4c" stop-opacity=".12"/></linearGradient>
    <radialGradient id="glow"><stop stop-color="#f3edbd" stop-opacity=".96"/><stop offset=".45" stop-color="#d8d99a" stop-opacity=".45"/><stop offset="1" stop-color="#d8d99a" stop-opacity="0"/></radialGradient>
  </defs><g data-starville-art-profile="phase12d-production-candidate" stroke-linecap="round" stroke-linejoin="round"><ellipse cx="116.48" cy="225.28" rx="76.16" ry="20.48" fill="#18231f" opacity=".22"/><path d="M58.24 217.6V107.52q0-64 53.76-64t53.76 64v110.08" fill="url(#shade)" stroke="#253832" stroke-width="8"/><path d="M89.6 217.6V115.2q0-23.04 22.4-23.04t22.4 23.04v102.4" fill="#345c4c"/><circle cx="125.44" cy="156.16" r="5" fill="#d8d99a"/><path d="M44.8 127.36l3.763 9.677 9.677 3.763-9.677 3.763-3.763 9.677-3.763-9.677-9.677-3.763 9.677-3.763z" fill="#f3edbd" stroke="#d8d99a" stroke-width="2"/><path d="M181.44 111.68l3.136 8.064 8.064 3.136-8.064 3.136-3.136 8.064-3.136-8.064-8.064-3.136 8.064-3.136z" fill="#f3edbd" stroke="#d8d99a" stroke-width="2"/><path d="M64.96 115.2q47.04-58.88 94.08 0M73.92 130.56q38.08-48.64 76.16 0" stroke="#f3edbd" stroke-width="3.584" opacity=".5"/><path d="M51.52 215.04q60.48 20.48 120.96 0" stroke="#d8d99a" stroke-width="4.032"/></g></svg>
