<svg xmlns="http://www.w3.org/2000/svg" width="288" height="288" viewBox="0 0 288 288" fill="none"><title>Cooking Hearth Ready</title><desc>The completed-cooking visual with a gentle gold readiness sparkle.</desc><metadata>Original repository-authored Starville Phase 12D production candidate; exact immutable manifest 2.0.0.</metadata><defs>
    <linearGradient id="surface" x1=".08" y1=".04" x2=".92" y2=".96"><stop stop-color="#fff0b0"/><stop offset=".24" stop-color="#eeb870"/><stop offset=".72" stop-color="#c36b3f"/><stop offset="1" stop-color="#804331"/></linearGradient>
    <linearGradient id="shade" x1=".08" y1="0" x2=".92" y2="1"><stop stop-color="#eeb870"/><stop offset=".46" stop-color="#c36b3f"/><stop offset="1" stop-color="#804331"/></linearGradient>
    <linearGradient id="rim" x1="0" y1="0" x2="1" y2=".75"><stop stop-color="#fff0b0" stop-opacity=".9"/><stop offset=".5" stop-color="#f6dc83" stop-opacity=".36"/><stop offset="1" stop-color="#804331" stop-opacity=".12"/></linearGradient>
    <radialGradient id="glow"><stop stop-color="#fff0b0" stop-opacity=".96"/><stop offset=".45" stop-color="#f6dc83" stop-opacity=".45"/><stop offset="1" stop-color="#f6dc83" stop-opacity="0"/></radialGradient>
  </defs><g data-starville-art-profile="phase12d-production-candidate" stroke-linecap="round" stroke-linejoin="round"><ellipse cx="149.76" cy="253.44" rx="97.92" ry="23.04" fill="#18231f" opacity=".22"/><path d="M57.6 207.36l86.4 43.2 86.4-43.2v-77.76l-86.4-43.2-86.4 43.2z" fill="url(#surface)" stroke="#402c29" stroke-width="6"/><path d="M80.64 207.36l63.36 31.68 63.36-31.68v-37.44l-63.36-28.8-63.36 28.8z" fill="#804331" stroke="#402c29" stroke-width="4"/><ellipse cx="144" cy="123.84" rx="60.48" ry="30.24" fill="#402c29"/><path d="M103.68 115.2q5.76 57.6 40.32 57.6t40.32-57.6v48.96q-40.32 37.44-80.64 0z" fill="#c36b3f" stroke="#402c29" stroke-width="5"/><path d="M103.68 109.44q40.32-34.56 80.64 0" stroke="#eeb870" stroke-width="10"/><path d="M109.44 100.8q34.56-28.8 69.12 0M144 86.4v-14.4" stroke="#f6dc83" stroke-width="8"/><path d="M216 47.52l6.854 17.626 17.626 6.854-17.626 6.854-6.854 17.626-6.854-17.626-17.626-6.854 17.626-6.854z" fill="#fff0b0" stroke="#f6dc83" stroke-width="2"/><circle cx="218.88" cy="149.76" r="21.6" fill="#fff0b0" stroke="#402c29" stroke-width="4"/><path d="M207.36 149.76l7.2 8.64 15.84-18.72" stroke="#804331" stroke-width="5"/><path d="M69.12 210.24l74.88 37.44 74.88-37.44" stroke="#fff0b0" stroke-width="3.744" opacity=".5"/><path d="M83.52 155.52l23.04 11.52m74.88-11.52l23.04-11.52" stroke="#eeb870" stroke-width="4.032" opacity=".65"/><path d="M69.12 72l3.226 8.294 8.294 3.226-8.294 3.226-3.226 8.294-3.226-8.294-8.294-3.226 8.294-3.226z" fill="#fff0b0" stroke="#f6dc83" stroke-width="2"/></g></svg>
