<svg xmlns="http://www.w3.org/2000/svg" width="192" height="288" viewBox="0 0 192 288" fill="none"><title>Star Lantern</title><desc>A slender village lantern with warm restrained glow and a stable post base.</desc><metadata>Original repository-authored Starville Phase 12D production candidate; exact immutable manifest 2.0.0.</metadata><defs>
    <linearGradient id="surface" x1=".08" y1=".04" x2=".92" y2=".96"><stop stop-color="#fff0b0"/><stop offset=".24" stop-color="#eeb870"/><stop offset=".72" stop-color="#c36b3f"/><stop offset="1" stop-color="#804331"/></linearGradient>
    <linearGradient id="shade" x1=".08" y1="0" x2=".92" y2="1"><stop stop-color="#eeb870"/><stop offset=".46" stop-color="#c36b3f"/><stop offset="1" stop-color="#804331"/></linearGradient>
    <linearGradient id="rim" x1="0" y1="0" x2="1" y2=".75"><stop stop-color="#fff0b0" stop-opacity=".9"/><stop offset=".5" stop-color="#f6dc83" stop-opacity=".36"/><stop offset="1" stop-color="#804331" stop-opacity=".12"/></linearGradient>
    <radialGradient id="glow"><stop stop-color="#fff0b0" stop-opacity=".96"/><stop offset=".45" stop-color="#f6dc83" stop-opacity=".45"/><stop offset="1" stop-color="#f6dc83" stop-opacity="0"/></radialGradient>
  </defs><g data-starville-art-profile="phase12d-production-candidate" stroke-linecap="round" stroke-linejoin="round"><ellipse cx="99.84" cy="253.44" rx="65.28" ry="23.04" fill="#18231f" opacity=".22"/><ellipse cx="96" cy="92.16" rx="72.96" ry="72" fill="url(#glow)"/><path d="M96 241.92V109.44" stroke="#402c29" stroke-width="12"/><path d="M67.2 106.56l28.8-37.44 28.8 37.44-9.6 51.84h-38.4z" fill="#fff0b0" stroke="#402c29" stroke-width="6"/><path d="M65.28 247.68h61.44" stroke="#804331" stroke-width="14"/><path d="M96 48.96v-20.16m-46.08 63.36l-15.36 7.2m107.52-7.2l15.36 7.2m-88.32 28.8l-13.44 17.28m76.8-17.28l13.44 17.28" stroke="#fff0b0" stroke-width="3.456" opacity=".62"/><path d="M84.48 97.92l11.52-14.4 11.52 14.4" stroke="#ffffff" stroke-width="2.304" opacity=".72"/></g></svg>
