<svg xmlns="http://www.w3.org/2000/svg" width="288" height="288" viewBox="0 0 288 288" fill="none"><title>Cooking Hearth</title><desc>A stone-and-copper cooking hearth with a clear pot, work surface, and warm coals.</desc><defs>
    <linearGradient id="surface" x1="0" y1="0" x2="1" y2="1"><stop stop-color="#eeb870"/><stop offset="1" stop-color="#c36b3f"/></linearGradient>
    <linearGradient id="shade" x1="0" y1="0" x2="0" y2="1"><stop stop-color="#c36b3f"/><stop offset="1" stop-color="#804331"/></linearGradient>
    <radialGradient id="glow"><stop stop-color="#fff0b0" stop-opacity=".92"/><stop offset="1" stop-color="#f6dc83" stop-opacity="0"/></radialGradient>
  </defs><g stroke-linecap="round" stroke-linejoin="round"><ellipse cx="149.76" cy="253.44" rx="97.92" ry="23.04" fill="#18231f" opacity=".22"/><path d="M57.6 207.36l86.4 43.2 86.4-43.2v-77.76l-86.4-43.2-86.4 43.2z" fill="url(#surface)" stroke="#402c29" stroke-width="6"/><path d="M80.64 207.36l63.36 31.68 63.36-31.68v-37.44l-63.36-28.8-63.36 28.8z" fill="#804331" stroke="#402c29" stroke-width="4"/><ellipse cx="144" cy="123.84" rx="60.48" ry="30.24" fill="#402c29"/><path d="M103.68 115.2q5.76 57.6 40.32 57.6t40.32-57.6v48.96q-40.32 37.44-80.64 0z" fill="#c36b3f" stroke="#402c29" stroke-width="5"/><path d="M103.68 109.44q40.32-34.56 80.64 0" stroke="#eeb870" stroke-width="10"/><g fill="#402c29" opacity=".78"><circle cx="120.96" cy="195.84" r="7"/><circle cx="144" cy="204.48" r="7"/><circle cx="167.04" cy="195.84" r="7"/></g></g></svg>
