<svg xmlns="http://www.w3.org/2000/svg" width="304" height="256" viewBox="0 0 304 256" fill="none"><title>Crafting Workbench Ready</title><desc>Crafting Workbench Ready with a bounded visual state cue and unchanged collision base.</desc><defs>
    <linearGradient id="surface" x1="0" y1="0" x2="1" y2="1"><stop stop-color="#e8bd77"/><stop offset="1" stop-color="#b87849"/></linearGradient>
    <linearGradient id="shade" x1="0" y1="0" x2="0" y2="1"><stop stop-color="#b87849"/><stop offset="1" stop-color="#75503d"/></linearGradient>
    <radialGradient id="glow"><stop stop-color="#fff2bd" stop-opacity=".92"/><stop offset="1" stop-color="#f5df9a" stop-opacity="0"/></radialGradient>
  </defs><g stroke-linecap="round" stroke-linejoin="round"><ellipse cx="158.08" cy="225.28" rx="103.36" ry="20.48" fill="#18231f" opacity=".22"/><path d="M42.56 122.88l109.44 43.52 109.44-43.52v35.84l-109.44 46.08-109.44-46.08z" fill="url(#surface)" stroke="#382b2a" stroke-width="6"/><path d="M69.92 151.04v69.12m164.16-69.12v69.12" stroke="#382b2a" stroke-width="10"/><path d="M72.96 102.4v-53.76h158.08v53.76" fill="none" stroke="#75503d" stroke-width="8"/><path d="M94.24 69.12h39.52m36.48 0h39.52" stroke="#e8bd77" stroke-width="7"/><path d="M112.48 115.2l39.52 17.92 39.52-17.92v33.28l-39.52 17.92-39.52-17.92z" fill="#f5df9a" stroke="#382b2a" stroke-width="5"/><path d="M221.92 49.92l6.093 15.667 15.667 6.093-15.667 6.093-6.093 15.667-6.093-15.667-15.667-6.093 15.667-6.093z" fill="#fff2bd" stroke="#f5df9a" stroke-width="2"/><circle cx="221.92" cy="143.36" r="19.76" fill="#fff2bd" stroke="#382b2a" stroke-width="4"/><path d="M211.28 143.36l6.688 7.168 15.2-15.36" stroke="#75503d" stroke-width="5"/></g></svg>
