<svg xmlns="http://www.w3.org/2000/svg" width="304" height="256" viewBox="0 0 304 256" fill="none"><title>Crafting Workbench Active</title><desc>Crafting Workbench Active with a bounded visual state cue and unchanged collision base.</desc><defs>
    <linearGradient id="surface" x1="0" y1="0" x2="1" y2="1"><stop stop-color="#e8bd77"/><stop offset="1" stop-color="#b87849"/></linearGradient>
    <linearGradient id="shade" x1="0" y1="0" x2="0" y2="1"><stop stop-color="#b87849"/><stop offset="1" stop-color="#75503d"/></linearGradient>
    <radialGradient id="glow"><stop stop-color="#fff2bd" stop-opacity=".92"/><stop offset="1" stop-color="#f5df9a" stop-opacity="0"/></radialGradient>
  </defs><g stroke-linecap="round" stroke-linejoin="round"><ellipse cx="158.08" cy="225.28" rx="103.36" ry="20.48" fill="#18231f" opacity=".22"/><path d="M42.56 122.88l109.44 43.52 109.44-43.52v35.84l-109.44 46.08-109.44-46.08z" fill="url(#surface)" stroke="#382b2a" stroke-width="6"/><path d="M69.92 151.04v69.12m164.16-69.12v69.12" stroke="#382b2a" stroke-width="10"/><path d="M72.96 102.4v-53.76h158.08v53.76" fill="none" stroke="#75503d" stroke-width="8"/><path d="M94.24 69.12h39.52m36.48 0h39.52" stroke="#e8bd77" stroke-width="7"/><path d="M109.44 125.44l82.08 33.28" stroke="#f5df9a" stroke-width="14"/><path d="M142.88 51.2l36.48 61.44m-24.32-48.64l51.68-20.48" stroke="#382b2a" stroke-width="10"/><g fill="#fff2bd"><circle cx="209.76" cy="122.88" r="5"/><circle cx="224.96" cy="138.24" r="4"/><circle cx="197.6" cy="145.92" r="3"/></g></g></svg>
